# xmcd
#
# Track frame offsets:
#	150
#	13361
#	26245
#	47352
#	60904
#	74083
#	87600
#	100518
#	118778
#	132916
#	150227
#	163386
#
# Disc length: 2396 seconds
#
# Revision: 2
# Processed by: cddbd v1.5.2PL0 Copyright (c) Steve Scherf et al.
# Submitted via: audiograbber 1.83.01
#
DISCID=a0095a0c
DTITLE=Jim Allchin - Enigma
DYEAR=2008
DGENRE=Pop
TTITLE0=Enigma Machine
TTITLE1=Take a Chance on Love
TTITLE2=I'm About to Fall
TTITLE3=Let's Play
TTITLE4=Drifting Away from You
TTITLE5=She's in Love with Me
TTITLE6=To See Your Tears
TTITLE7=I'm Your Man
TTITLE8=You're Leavin'
TTITLE9=Rockin' Chair
TTITLE10=Killer Shuffle
TTITLE11=Kick It
EXTD=
EXTT0=
EXTT1=
EXTT2=
EXTT3=
EXTT4=
EXTT5=
EXTT6=
EXTT7=
EXTT8=
EXTT9=
EXTT10=
EXTT11=
PLAYORDER=
